<svg width="30" height="31" viewBox="0 0 30 31" fill="none" xmlns="http://www.w3.org/2000/svg">
<g filter="url(#filter0_d_683_3808)">
<path d="M21 10.75C20.59 10.75 20.25 10.41 20.25 10V8C20.25 4.85 19.36 2.75 15 2.75C10.64 2.75 9.75 4.85 9.75 8V10C9.75 10.41 9.41 10.75 9 10.75C8.59 10.75 8.25 10.41 8.25 10V8C8.25 5.1 8.95 1.25 15 1.25C21.05 1.25 21.75 5.1 21.75 8V10C21.75 10.41 21.41 10.75 21 10.75Z" fill="#6F7384"/>
<path d="M15 19.25C13.21 19.25 11.75 17.79 11.75 16C11.75 14.21 13.21 12.75 15 12.75C16.79 12.75 18.25 14.21 18.25 16C18.25 17.79 16.79 19.25 15 19.25ZM15 14.25C14.04 14.25 13.25 15.04 13.25 16C13.25 16.96 14.04 17.75 15 17.75C15.96 17.75 16.75 16.96 16.75 16C16.75 15.04 15.96 14.25 15 14.25Z" fill="#6F7384"/>
<path d="M20 22.75H10C5.59 22.75 4.25 21.41 4.25 17V15C4.25 10.59 5.59 9.25 10 9.25H20C24.41 9.25 25.75 10.59 25.75 15V17C25.75 21.41 24.41 22.75 20 22.75ZM10 10.75C6.42 10.75 5.75 11.43 5.75 15V17C5.75 20.57 6.42 21.25 10 21.25H20C23.58 21.25 24.25 20.57 24.25 17V15C24.25 11.43 23.58 10.75 20 10.75H10Z" fill="#6F7384"/>
</g>
<defs>
<filter id="filter0_d_683_3808" x="-1" y="0" width="32" height="32" filterUnits="userSpaceOnUse" color-interpolation-filters="sRGB">
<feFlood flood-opacity="0" result="BackgroundImageFix"/>
<feColorMatrix in="SourceAlpha" type="matrix" values="0 0 0 0 0 0 0 0 0 0 0 0 0 0 0 0 0 0 127 0" result="hardAlpha"/>
<feOffset dy="4"/>
<feGaussianBlur stdDeviation="2"/>
<feComposite in2="hardAlpha" operator="out"/>
<feColorMatrix type="matrix" values="0 0 0 0 0 0 0 0 0 0 0 0 0 0 0 0 0 0 0.25 0"/>
<feBlend mode="normal" in2="BackgroundImageFix" result="effect1_dropShadow_683_3808"/>
<feBlend mode="normal" in="SourceGraphic" in2="effect1_dropShadow_683_3808" result="shape"/>
</filter>
</defs>
</svg>
