<svg width="38" height="39" viewBox="0 0 38 39" fill="none" xmlns="http://www.w3.org/2000/svg">
<g filter="url(#filter0_d_187_21103)">
<path d="M18.3337 29.0003C10.8003 29.0003 4.66699 22.867 4.66699 15.3337C4.66699 7.80033 10.8003 1.66699 18.3337 1.66699C25.867 1.66699 32.0003 7.80033 32.0003 15.3337C32.0003 22.867 25.867 29.0003 18.3337 29.0003ZM18.3337 3.66699C11.8937 3.66699 6.66699 8.90699 6.66699 15.3337C6.66699 21.7603 11.8937 27.0003 18.3337 27.0003C24.7737 27.0003 30.0003 21.7603 30.0003 15.3337C30.0003 8.90699 24.7737 3.66699 18.3337 3.66699Z" fill="white"/>
<path d="M32.3333 30.3333C32.0799 30.3333 31.8266 30.2399 31.6266 30.0399L28.9599 27.3733C28.5733 26.9866 28.5733 26.3466 28.9599 25.9599C29.3466 25.5733 29.9866 25.5733 30.3733 25.9599L33.0399 28.6266C33.4266 29.0133 33.4266 29.6533 33.0399 30.0399C32.8399 30.2399 32.5866 30.3333 32.3333 30.3333Z" fill="white"/>
</g>
<defs>
<filter id="filter0_d_187_21103" x="-1" y="0" width="40" height="40" filterUnits="userSpaceOnUse" color-interpolation-filters="sRGB">
<feFlood flood-opacity="0" result="BackgroundImageFix"/>
<feColorMatrix in="SourceAlpha" type="matrix" values="0 0 0 0 0 0 0 0 0 0 0 0 0 0 0 0 0 0 127 0" result="hardAlpha"/>
<feOffset dy="4"/>
<feGaussianBlur stdDeviation="2"/>
<feComposite in2="hardAlpha" operator="out"/>
<feColorMatrix type="matrix" values="0 0 0 0 0 0 0 0 0 0 0 0 0 0 0 0 0 0 0.25 0"/>
<feBlend mode="normal" in2="BackgroundImageFix" result="effect1_dropShadow_187_21103"/>
<feBlend mode="normal" in="SourceGraphic" in2="effect1_dropShadow_187_21103" result="shape"/>
</filter>
</defs>
</svg>
