<?xml version="1.0" encoding="iso-8859-1"?>
<!-- Uploaded to: SVG Repo, www.svgrepo.com, Generator: SVG Repo Mixer Tools -->
<!DOCTYPE svg PUBLIC "-//W3C//DTD SVG 1.1//EN" "http://www.w3.org/Graphics/SVG/1.1/DTD/svg11.dtd">
<svg fill="#000000" height="800px" width="800px" version="1.1" id="Capa_1" xmlns="http://www.w3.org/2000/svg" xmlns:xlink="http://www.w3.org/1999/xlink" 
	 viewBox="0 0 488.609 488.609" xml:space="preserve">
<g>
	<path d="M257.462,246.16c0-18.935-15.404-34.339-34.338-34.339c-18.935,0-34.339,15.404-34.339,34.339
		c0,18.934,15.404,34.338,34.339,34.338C242.058,280.498,257.462,265.094,257.462,246.16z M223.124,271.998
		c-14.248,0-25.839-11.591-25.839-25.838c0-14.248,11.591-25.839,25.839-25.839c14.247,0,25.838,11.591,25.838,25.839
		C248.962,260.407,237.371,271.998,223.124,271.998z"/>
	<path d="M197.976,185.285c0-9.591-7.803-17.394-17.395-17.394c-9.591,0-17.394,7.803-17.394,17.394
		c0,9.591,7.803,17.395,17.394,17.395C190.173,202.68,197.976,194.876,197.976,185.285z M180.581,194.18
		c-4.904,0-8.894-3.99-8.894-8.895s3.989-8.894,8.894-8.894s8.895,3.99,8.895,8.894S185.485,194.18,180.581,194.18z"/>
	<path d="M201.336,300.717c-9.592,0-17.396,7.803-17.396,17.395c0,9.591,7.804,17.394,17.396,17.394
		c9.591,0,17.395-7.803,17.395-17.394C218.73,308.52,210.927,300.717,201.336,300.717z M201.336,327.006
		c-4.905,0-8.896-3.99-8.896-8.894c0-4.905,3.99-8.895,8.896-8.895c4.904,0,8.895,3.99,8.895,8.895
		C210.23,323.016,206.24,327.006,201.336,327.006z"/>
	<path d="M258.757,278.233c-12.643,0-22.93,10.285-22.93,22.928c0,12.644,10.286,22.93,22.93,22.93
		c12.643,0,22.928-10.286,22.928-22.93C281.685,288.519,271.399,278.233,258.757,278.233z M258.757,315.591
		c-7.956,0-14.43-6.473-14.43-14.43c0-7.956,6.474-14.428,14.43-14.428c7.955,0,14.428,6.472,14.428,14.428
		C273.185,309.118,266.712,315.591,258.757,315.591z"/>
	<path d="M280.2,222.395c11.88,0,21.545-9.665,21.545-21.545c0-11.88-9.665-21.546-21.545-21.546
		c-11.879,0-21.543,9.665-21.543,21.546C258.657,212.73,268.321,222.395,280.2,222.395z M280.2,187.805
		c7.193,0,13.045,5.852,13.045,13.046c0,7.193-5.852,13.045-13.045,13.045c-7.192,0-13.043-5.852-13.043-13.045
		C267.157,193.657,273.008,187.805,280.2,187.805z"/>
	<path d="M156.714,247.794c-11.88,0-21.544,9.665-21.544,21.545c0,11.88,9.664,21.545,21.544,21.545s21.544-9.665,21.544-21.545
		C178.258,257.458,168.594,247.794,156.714,247.794z M156.714,282.383c-7.192,0-13.044-5.852-13.044-13.045
		s5.852-13.045,13.044-13.045s13.044,5.852,13.044,13.045S163.906,282.383,156.714,282.383z"/>
	<path d="M246.994,185.039c8.829,0,16.013-7.183,16.013-16.011c0-8.828-7.183-16.01-16.013-16.01s-16.012,7.182-16.012,16.01
		C230.982,177.857,238.165,185.039,246.994,185.039z M246.994,161.518c4.143,0,7.513,3.369,7.513,7.51
		c0,4.142-3.37,7.511-7.513,7.511c-4.142,0-7.512-3.37-7.512-7.511C239.482,164.887,242.853,161.518,246.994,161.518z"/>
	<path d="M296.459,243.643c-8.828,0-16.011,7.183-16.011,16.012c0,8.828,7.183,16.01,16.011,16.01
		c8.829,0,16.012-7.182,16.012-16.01C312.471,250.825,305.288,243.643,296.459,243.643z M296.459,267.164
		c-4.142,0-7.511-3.369-7.511-7.51c0-4.142,3.369-7.512,7.511-7.512s7.512,3.37,7.512,7.512
		C303.971,263.795,300.601,267.164,296.459,267.164z"/>
	<path d="M400.326,209.597c8.065,0,14.627-6.561,14.627-14.626v-30.094c0-8.066-6.562-14.627-14.627-14.627h-18.738v-11.686
		c0-22.505-18.309-40.814-40.814-40.814h-10.602V13.769C330.173,6.177,323.996,0,316.404,0H138.842
		c-7.593,0-13.769,6.177-13.769,13.769v83.981h-10.602c-22.505,0-40.814,18.309-40.814,40.814v207.527
		c0,22.505,18.31,40.815,40.814,40.815h10.602v87.934c0,7.593,6.177,13.77,13.769,13.77l177.563-0.001
		c7.592,0,13.769-6.177,13.769-13.77v-87.933h10.602c22.505,0,40.814-18.309,40.814-40.815v-32.715h18.738
		c8.065,0,14.627-6.562,14.627-14.628v-47.744c0-8.065-6.562-14.626-14.627-14.626h-18.738v-26.783H400.326z M400.326,158.75
		c3.378,0,6.127,2.749,6.127,6.127v30.094c0,3.378-2.749,6.126-6.127,6.126h-18.738V158.75H400.326z M133.572,13.769
		c0-2.906,2.363-5.269,5.269-5.269h18.123c0,0.011-0.003,0.022-0.003,0.033V56.61c0,2.347,1.902,4.25,4.25,4.25
		c2.347,0,4.25-1.903,4.25-4.25V8.533c0-0.011-0.004-0.022-0.004-0.033h150.946c2.905,0,5.269,2.364,5.269,5.269v54.502
		l-100.621-0.001c-2.348,0-4.25,1.903-4.25,4.25c0,2.347,1.902,4.25,4.25,4.25l100.621,0.001v20.979H133.572V13.769z
		 M321.673,474.839c0,2.906-2.363,5.27-5.269,5.27h-12.929v-46.811c0-2.347-1.902-4.25-4.25-4.25c-2.348,0-4.25,1.903-4.25,4.25
		v46.811l-156.134,0.001c-2.906,0-5.269-2.364-5.269-5.27v-55.626h100.97c2.347,0,4.25-1.903,4.25-4.25s-1.903-4.25-4.25-4.25
		h-100.97v-23.807h188.101V474.839z M373.088,346.092c0,17.818-14.496,32.315-32.314,32.315H114.471
		c-17.818,0-32.314-14.496-32.314-32.315V138.564c0-17.818,14.496-32.314,32.314-32.314h226.304
		c17.817,0,32.314,14.496,32.314,32.314V346.092z M400.326,244.88c3.379,0,6.127,2.748,6.127,6.126v47.744
		c0,3.379-2.748,6.128-6.127,6.128h-18.738V244.88H400.326z"/>
	<path d="M312.938,123.841H142.307c-22.505,0-40.814,18.309-40.814,40.815v155.346c0,22.505,18.309,40.814,40.814,40.814h170.631
		c22.505,0,40.815-18.309,40.815-40.814V164.655C353.752,142.15,335.442,123.841,312.938,123.841z M345.252,320.001
		c0,17.818-14.496,32.314-32.315,32.314H142.307c-17.817,0-32.314-14.496-32.314-32.314V164.655
		c0-17.818,14.496-32.314,32.314-32.314h170.631c17.818,0,32.315,14.496,32.315,32.314V320.001z"/>
</g>
</svg>